<?xml version="1.0" encoding="iso-8859-1"?>
<!-- Generator: Adobe Illustrator 19.0.0, SVG Export Plug-In . SVG Version: 6.00 Build 0)  -->
<svg version="1.1" id="Layer_1" xmlns="http://www.w3.org/2000/svg" xmlns:xlink="http://www.w3.org/1999/xlink" x="0px" y="0px"
	 viewBox="0 0 300.162 300.162" style="enable-background:new 0 0 300.162 300.162;" xml:space="preserve">
<g>
	<g>
		<path style="fill:#333333;" d="M150.08,0.001C67.328,0.001,0,67.324,0,150.081c0,0.736,0.024,1.472,0.048,2.203l0.034,1.128
			l9.683,0.053c0.779-23.616,19.883-42.114,43.489-42.114c24.022,0,43.572,19.544,43.572,43.572h9.683
			c0-22.391,16.978-40.87,38.73-43.286v43.286h9.683v-43.286c21.752,2.416,38.73,20.895,38.73,43.286h9.683
			c0-24.027,19.549-43.572,43.572-43.572c23.606,0,42.71,18.499,43.494,42.114l9.683-0.053l0.034-1.128
			c0.019-0.731,0.044-1.467,0.044-2.203C300.16,67.324,232.832,0.001,150.08,0.001z M53.254,101.668
			c-16.165,0-30.602,7.092-40.342,18.407C25.775,61.234,75.65,16.084,136.81,10.323c-9.131,9.489-22.1,26.278-30.069,51.138
			c-6.72,20.953-8.956,46.007-9.668,63.285C87.453,110.823,71.414,101.668,53.254,101.668z M150.08,101.668
			c-17.806,0-33.579,8.801-43.252,22.265c0.755-16.683,2.948-40.241,9.131-59.514c9.591-29.905,27.285-47.42,34.121-53.336
			c6.836,5.916,24.531,23.432,34.121,53.336c6.177,19.254,8.371,42.816,9.126,59.509
			C183.654,110.465,167.881,101.668,150.08,101.668z M246.906,101.668c-18.16,0-34.199,9.155-43.818,23.078
			c-0.712-17.279-2.948-42.332-9.668-63.285c-7.97-24.86-20.94-41.645-30.07-51.138c61.16,5.761,111.04,50.911,123.898,109.752
			C277.507,108.76,263.071,101.668,246.906,101.668z"/>
		<path style="fill:#333333;" d="M145.239,266.272c0,13.347-10.859,24.206-24.206,24.206s-24.206-10.859-24.206-24.206v-4.841
			h-9.683v4.841c0,18.683,15.202,33.889,33.889,33.889s33.889-15.206,33.889-33.889v-4.841h-9.683V266.272z"/>
		<path style="fill:#F9BA48;" d="M150.08,266.272c-32.035,0-58.095-26.061-58.095-58.095s26.061-58.095,58.095-58.095
			s58.095,26.061,58.095,58.095S182.115,266.272,150.08,266.272z"/>
		<path style="fill:#333333;" d="M150.08,232.383c-7.877,0-14.819-3.839-19.239-9.683h24.081v-9.683h-28.559
			c-0.32-1.564-0.489-3.186-0.489-4.841s0.169-3.278,0.489-4.841h28.559v-9.683h-24.081c4.425-5.843,11.367-9.683,19.239-9.683
			c6.841,0,13.401,2.939,18.005,8.075l7.204-6.468c-6.434-7.175-15.623-11.29-25.209-11.29c-13.483,0-25.121,7.935-30.573,19.365
			h-8.158v9.683h5.229c-0.228,1.588-0.387,3.195-0.387,4.841s0.16,3.253,0.387,4.841h-5.229v9.683h8.158
			c5.451,11.43,17.09,19.365,30.573,19.365c9.586,0,18.774-4.115,25.213-11.29l-7.204-6.468
			C163.481,229.444,156.921,232.383,150.08,232.383z"/>
	</g>
</g>
<g>
</g>
<g>
</g>
<g>
</g>
<g>
</g>
<g>
</g>
<g>
</g>
<g>
</g>
<g>
</g>
<g>
</g>
<g>
</g>
<g>
</g>
<g>
</g>
<g>
</g>
<g>
</g>
<g>
</g>
</svg>
